# xmcd
#
# Track frame offsets: 
#        150
#        17292
#        32412
#        49073
#        68833
#        87262
#        103405
#        125538
#        146350
#        167026
#        189447
#        210780
#
# Disc length: 2997 seconds
#
# Revision: 1
# Processed by: cddbd v1.5.2PL0 Copyright (c) Steve Scherf et al.
# Submitted via: ExactAudioCopy v0.99pb5
#
DISCID=950bb30c
DTITLE=Sandhy Sondoro - Why Don't We
DYEAR=2008
DGENRE=Acoustic
TTITLE0=Why Don't We
TTITLE1=Superstar (How Could We Not Love)
TTITLE2=End Of The Rainbow
TTITLE3=You And I
TTITLE4=In The Name Of Peace
TTITLE5=Donw On The Streets (Reloaded)
TTITLE6=I Don't Know Where
TTITLE7=An Unordinary Lovely Friend
TTITLE8=People (Shall We Live For Money)
TTITLE9=Last Dance With You
TTITLE10=That's The Way
TTITLE11=Don't Let It Bring You Down
EXTD=
EXTT0=
EXTT1=
EXTT2=
EXTT3=
EXTT4=
EXTT5=
EXTT6=
EXTT7=
EXTT8=
EXTT9=
EXTT10=
EXTT11=
PLAYORDER=
